<svg xmlns="http://www.w3.org/2000/svg" viewBox="0 0 1200 760" role="img" aria-label="Infrastructure dashboard">
  <defs>
    <linearGradient id="bg" x1="0" y1="0" x2="1" y2="1">
      <stop offset="0%" stop-color="#0e1f35"/>
      <stop offset="100%" stop-color="#143a5f"/>
    </linearGradient>
    <linearGradient id="card" x1="0" y1="0" x2="1" y2="1">
      <stop offset="0%" stop-color="#213d63"/>
      <stop offset="100%" stop-color="#162941"/>
    </linearGradient>
  </defs>
  <rect width="1200" height="760" rx="36" fill="url(#bg)"/>
  <rect x="70" y="80" width="1060" height="600" rx="22" fill="url(#card)" stroke="#74d8f7" stroke-opacity="0.28"/>
  <rect x="120" y="145" width="330" height="180" rx="16" fill="#0f2034" stroke="#43d9a3" stroke-opacity="0.5"/>
  <rect x="485" y="145" width="600" height="80" rx="12" fill="#122742"/>
  <rect x="485" y="245" width="600" height="80" rx="12" fill="#122742"/>
  <rect x="120" y="365" width="965" height="260" rx="16" fill="#0f2034"/>
  <circle cx="190" cy="200" r="26" fill="#43d9a3"/>
  <circle cx="250" cy="200" r="26" fill="#4cc9f0"/>
  <circle cx="310" cy="200" r="26" fill="#ffbd59"/>
  <path d="M540 287 L610 260 L695 290 L760 248 L840 298 L940 255 L1030 280" fill="none" stroke="#4cc9f0" stroke-width="7" stroke-linecap="round"/>
  <rect x="165" y="430" width="145" height="145" rx="12" fill="#1f3c61"/>
  <rect x="340" y="430" width="145" height="145" rx="12" fill="#1f3c61"/>
  <rect x="515" y="430" width="145" height="145" rx="12" fill="#1f3c61"/>
  <rect x="690" y="430" width="145" height="145" rx="12" fill="#1f3c61"/>
  <rect x="865" y="430" width="145" height="145" rx="12" fill="#1f3c61"/>
</svg>
